<svg width="24" height="24" viewBox="0 0 24 23" fill="none" xmlns="http://www.w3.org/2000/svg">
<g clip-path="url(#clip0_362_642)">
<path d="M23.9963 6.11481C23.9963 5.43831 23.934 4.76456 23.7577 4.10594C23.4412 2.90625 22.695 1.98981 21.5782 1.31675C21.0037 0.973 20.3715 0.761937 19.6995 0.650562C19.1834 0.5678 18.6611 0.522285 18.1372 0.514437C18.0982 0.511 18.0555 0.503437 18.012 0.5H5.98875C5.8365 0.511 5.68425 0.517875 5.532 0.52475C4.78575 0.563938 4.044 0.635438 3.3405 0.89325C2.00475 1.37656 1.0395 2.2215 0.476999 3.43906C0.281999 3.85088 0.183749 4.28744 0.113999 4.73156C0.055499 5.08975 0.023999 5.45138 0.012749 5.813C0.012749 5.84188 0.00524902 5.87006 0.00524902 5.89894V17.1031L0.028499 17.4902C0.079499 18.2389 0.184499 18.98 0.528749 19.6675C1.1775 20.9676 2.26725 21.8228 3.7635 22.2346C4.18125 22.3529 4.61925 22.4065 5.0565 22.4422C5.6115 22.4924 6.16575 22.4993 6.72075 22.4993H17.7517C18.2752 22.4993 18.7987 22.467 19.3223 22.4065C20.1465 22.3096 20.9197 22.0875 21.6195 21.6654C22.4478 21.1735 23.1009 20.4702 23.4982 19.6421C23.6857 19.255 23.7915 18.8439 23.8695 18.4279C23.9827 17.8085 24.006 17.1815 24.006 16.5552C24.0022 13.0744 24.006 9.59425 24.0022 6.11344L23.9963 6.11481ZM17.574 9.77025V15.0056C17.574 15.3885 17.5155 15.7646 17.328 16.1117C17.0392 16.6521 16.5705 16.9924 15.9412 17.1574C15.5927 17.249 15.2333 17.3019 14.871 17.3149C14.4153 17.3396 13.9657 17.2098 13.6077 16.9503C13.2496 16.6908 13.0081 16.3197 12.9292 15.9076C12.857 15.5368 12.9194 15.1545 13.1071 14.8194C13.2947 14.4843 13.5972 14.215 13.968 14.0527C14.2882 13.9097 14.6362 13.8237 14.9835 13.7591C15.3622 13.6842 15.741 13.6161 16.116 13.5371C16.3935 13.48 16.5727 13.326 16.6275 13.0641C16.6432 13.007 16.647 12.9458 16.647 12.8888V7.8975C16.6456 7.84055 16.6366 7.78397 16.62 7.72906C16.581 7.5895 16.4715 7.507 16.3155 7.51388C16.155 7.52075 15.999 7.54619 15.843 7.57506C15.081 7.71119 14.3197 7.85075 13.5615 7.99375L9.8625 8.67781C9.84675 8.68125 9.82725 8.68881 9.8115 8.68881C9.534 8.76031 9.4365 8.87512 9.4245 9.13981C9.42075 9.179 9.4245 9.21887 9.4245 9.25806C9.42075 11.643 9.4245 14.0279 9.42075 16.4122C9.42075 16.7992 9.3735 17.1788 9.20625 17.5363C8.92875 18.1234 8.43675 18.4926 7.773 18.6679C7.4221 18.7615 7.05977 18.8144 6.6945 18.8253C5.7375 18.8576 4.94025 18.2739 4.77675 17.4111C4.63575 16.6666 5.007 15.8643 5.92875 15.5061C6.288 15.3699 6.65925 15.295 7.038 15.2235L7.8975 15.0626C8.28 14.9877 8.4795 14.7656 8.499 14.4074V6.12856C8.499 6.01375 8.51475 5.89962 8.54175 5.78825C8.61225 5.527 8.8155 5.37644 9.0885 5.31525C9.34275 5.25406 9.6045 5.21144 9.86175 5.16125C10.596 5.02513 11.3265 4.889 12.0607 4.75631L14.3302 4.3335C15.0022 4.21181 15.6697 4.08669 16.3417 3.965C16.5607 3.92581 16.7835 3.8825 17.0055 3.86806C17.3137 3.84331 17.529 4.02206 17.5605 4.30875C17.568 4.37681 17.5725 4.44488 17.5725 4.51294V9.76612L17.574 9.77025Z" fill="white"/>
</g>
<defs>
<clipPath id="clip0_362_642">
<rect width="24" height="22" fill="white" transform="translate(0 0.5)"/>
</clipPath>
</defs>
</svg>
