<svg width="32" height="22" viewBox="0 0 32 22" fill="none" xmlns="http://www.w3.org/2000/svg">
<path opacity="0.8" d="M29.7143 0H2.28571C1.6795 0 1.09812 0.229728 0.66947 0.638648C0.240816 1.04757 0 1.60218 0 2.18048V19.6243C0 20.2026 0.240816 20.7572 0.66947 21.1661C1.09812 21.5751 1.6795 21.8048 2.28571 21.8048H29.7143C30.3205 21.8048 30.9019 21.5751 31.3305 21.1661C31.7592 20.7572 32 20.2026 32 19.6243V2.18048C32 1.60218 31.7592 1.04757 31.3305 0.638648C30.9019 0.229728 30.3205 0 29.7143 0ZM27.2 2.18048L16 9.57231L4.8 2.18048H27.2ZM2.28571 19.6243V3.1726L15.3486 11.7964C15.5399 11.923 15.7672 11.9908 16 11.9908C16.2328 11.9908 16.4601 11.923 16.6514 11.7964L29.7143 3.1726V19.6243H2.28571Z" fill="white"/>
</svg>
