<svg width="24" height="31" viewBox="0 0 24 31" fill="none" xmlns="http://www.w3.org/2000/svg">
<g opacity="0.8">
<path d="M19.2 1.93063C19.8365 1.93063 20.447 2.13404 20.8971 2.4961C21.3471 2.85817 21.6 3.34923 21.6 3.86127V27.0289C21.6 27.5409 21.3471 28.032 20.8971 28.394C20.447 28.7561 19.8365 28.9595 19.2 28.9595H4.8C4.16348 28.9595 3.55303 28.7561 3.10294 28.394C2.65286 28.032 2.4 27.5409 2.4 27.0289V3.86127C2.4 3.34923 2.65286 2.85817 3.10294 2.4961C3.55303 2.13404 4.16348 1.93063 4.8 1.93063H19.2ZM4.8 0C3.52696 0 2.30606 0.406811 1.40589 1.13094C0.505713 1.85507 0 2.83719 0 3.86127V27.0289C0 28.0529 0.505713 29.0351 1.40589 29.7592C2.30606 30.4833 3.52696 30.8901 4.8 30.8901H19.2C20.473 30.8901 21.6939 30.4833 22.5941 29.7592C23.4943 29.0351 24 28.0529 24 27.0289V3.86127C24 2.83719 23.4943 1.85507 22.5941 1.13094C21.6939 0.406811 20.473 0 19.2 0L4.8 0Z" fill="white"/>
<path d="M12.4 26.8613C13.0365 26.8613 13.647 26.6579 14.0971 26.2958C14.5471 25.9337 14.8 25.4427 14.8 24.9306C14.8 24.4186 14.5471 23.9275 14.0971 23.5655C13.647 23.2034 13.0365 23 12.4 23C11.7635 23 11.153 23.2034 10.7029 23.5655C10.2529 23.9275 10 24.4186 10 24.9306C10 25.4427 10.2529 25.9337 10.7029 26.2958C11.153 26.6579 11.7635 26.8613 12.4 26.8613Z" fill="white"/>
</g>
</svg>
