<svg width="29" height="20" viewBox="0 0 29 20" fill="none" xmlns="http://www.w3.org/2000/svg">
<path d="M6.153 7.07764C7.36441 7.07764 8.54862 7.44084 9.55587 8.12133C10.5631 8.80182 11.3482 9.76902 11.8118 10.9006C12.2753 12.0322 12.3966 13.2774 12.1603 14.4787C11.924 15.6801 11.3406 16.7835 10.484 17.6496C9.62743 18.5157 8.53606 19.1055 7.34793 19.3445C6.1598 19.5835 4.92826 19.4608 3.80906 18.9921C2.68987 18.5234 1.73327 17.7296 1.06025 16.7112C0.387225 15.6928 0.028 14.4954 0.028 13.2706L0 12.3859C0 9.10093 1.29062 5.95053 3.58794 3.62773C5.88526 1.30494 9.0011 0 12.25 0V3.53882C11.1004 3.53569 9.96165 3.76302 8.89951 4.20765C7.83737 4.65228 6.87294 5.3054 6.062 6.12923C5.74682 6.44731 5.45606 6.78921 5.19225 7.15195C5.5055 7.10241 5.82575 7.07587 6.15125 7.07587L6.153 7.07764ZM21.903 7.07764C23.1144 7.07764 24.2986 7.44084 25.3059 8.12133C26.3131 8.80182 27.0982 9.76902 27.5618 10.9006C28.0254 12.0322 28.1466 13.2774 27.9103 14.4787C27.674 15.6801 27.0906 16.7835 26.234 17.6496C25.3774 18.5157 24.2861 19.1055 23.0979 19.3445C21.9098 19.5835 20.6783 19.4608 19.5591 18.9921C18.4399 18.5234 17.4833 17.7296 16.8102 16.7112C16.1372 15.6928 15.778 14.4954 15.778 13.2706L15.75 12.3859C15.75 9.10093 17.0406 5.95053 19.3379 3.62773C21.6353 1.30494 24.7511 0 28 0V3.53882C26.8504 3.53569 25.7117 3.76302 24.6495 4.20765C23.5874 4.65228 22.6229 5.3054 21.812 6.12923C21.4968 6.44731 21.2061 6.78921 20.9423 7.15195C21.2555 7.10241 21.5758 7.07587 21.903 7.07587V7.07764Z" fill="#E31B26"/>
</svg>
