<svg width="29" height="29" viewBox="0 0 29 29" fill="none" xmlns="http://www.w3.org/2000/svg">
<path d="M14.5113 2.94531C12.226 2.94531 9.99205 3.62298 8.09189 4.89263C6.19173 6.16227 4.71073 7.96687 3.83619 10.0782C2.96164 12.1896 2.73282 14.5128 3.17866 16.7542C3.6245 18.9956 4.72498 21.0544 6.34093 22.6704C7.95688 24.2864 10.0157 25.3868 12.2571 25.8327C14.4985 26.2785 16.8218 26.0497 18.9331 25.1751C21.0445 24.3006 22.8491 22.8196 24.1187 20.9194C25.3883 19.0193 26.066 16.7853 26.066 14.5C26.063 11.4364 24.8447 8.49919 22.6784 6.33291C20.5121 4.16664 17.5749 2.94831 14.5113 2.94531ZM14.5113 24.6953C12.4949 24.6953 10.5237 24.0974 8.84711 22.9771C7.1705 21.8568 5.86375 20.2645 5.09209 18.4016C4.32043 16.5386 4.11853 14.4887 4.51191 12.511C4.9053 10.5333 5.87631 8.71667 7.30215 7.29083C8.72799 5.86499 10.5446 4.89398 12.5223 4.50059C14.5 4.1072 16.55 4.3091 18.4129 5.08076C20.2759 5.85242 21.8681 7.15918 22.9884 8.83579C24.1087 10.5124 24.7066 12.4836 24.7066 14.5C24.7036 17.203 23.6285 19.7945 21.7172 21.7059C19.8058 23.6172 17.2144 24.6923 14.5113 24.6953ZM20.9004 12.5855C20.8159 12.7445 20.6728 12.8642 20.5014 12.9192C20.3301 12.9742 20.144 12.9601 19.9828 12.8801C18.2863 12.0094 16.4069 11.5553 14.5 11.5553C12.5931 11.5553 10.7137 12.0094 9.01719 12.8801C8.9204 12.9343 8.8109 12.9616 8.7 12.9594C8.54532 12.9616 8.39451 12.911 8.27249 12.8159C8.15046 12.7208 8.06453 12.5869 8.02887 12.4364C7.99322 12.2859 8.00999 12.1277 8.0764 11.988C8.14281 11.8482 8.2549 11.7354 8.39414 11.668C10.2877 10.6994 12.3844 10.1946 14.5113 10.1953C16.6315 10.1904 18.7218 10.6955 20.6059 11.668C20.6856 11.7087 20.7565 11.7648 20.8145 11.833C20.8725 11.9013 20.9165 11.9803 20.9439 12.0655C20.9712 12.1508 20.9815 12.2406 20.974 12.3299C20.9666 12.4191 20.9415 12.506 20.9004 12.5855ZM19.2238 15.7914C19.1841 15.8721 19.1287 15.9442 19.0609 16.0033C18.9932 16.0625 18.9143 16.1076 18.8289 16.1361C18.7436 16.1645 18.6534 16.1757 18.5637 16.1691C18.474 16.1624 18.3865 16.138 18.3062 16.0973C17.1282 15.4938 15.8236 15.1791 14.5 15.1791C13.1764 15.1791 11.8718 15.4938 10.6937 16.0973C10.5984 16.1445 10.4942 16.1715 10.3879 16.1766C10.2322 16.1815 10.0795 16.1328 9.95543 16.0387C9.83133 15.9445 9.74334 15.8106 9.70619 15.6593C9.66903 15.5081 9.68497 15.3486 9.75132 15.2077C9.81768 15.0668 9.93043 14.9529 10.0707 14.8852C11.4422 14.1851 12.9601 13.82 14.5 13.82C16.0399 13.82 17.5578 14.1851 18.9293 14.8852C19.0874 14.9674 19.2069 15.1085 19.262 15.278C19.3171 15.4475 19.3034 15.6319 19.2238 15.7914ZM17.5473 19.0086C17.4628 19.1675 17.3197 19.2872 17.1483 19.3422C16.9769 19.3972 16.7909 19.3832 16.6297 19.3031C15.9718 18.9748 15.2466 18.8041 14.5113 18.8047C13.7672 18.8011 13.033 18.9759 12.3703 19.3145C12.2743 19.3585 12.1701 19.3816 12.0645 19.3824C11.9381 19.382 11.8142 19.347 11.7063 19.281C11.5985 19.2151 11.5108 19.1209 11.4527 19.0086C11.4122 18.9292 11.388 18.8425 11.3815 18.7537C11.375 18.6648 11.3863 18.5755 11.4148 18.491C11.4433 18.4066 11.4884 18.3287 11.5474 18.262C11.6065 18.1952 11.6783 18.1409 11.7586 18.1023C12.6098 17.6646 13.5542 17.4392 14.5113 17.4453C15.4595 17.4424 16.395 17.6636 17.2414 18.091C17.3221 18.1307 17.3942 18.1861 17.4533 18.2539C17.5125 18.3217 17.5576 18.4005 17.5861 18.4859C17.6145 18.5713 17.6257 18.6614 17.6191 18.7511C17.6124 18.8409 17.588 18.9284 17.5473 19.0086Z" fill="white"/>
</svg>
